<svg xmlns="http://www.w3.org/2000/svg" viewBox="0 0 24 24" fill="none" stroke="currentColor" stroke-width="2" stroke-linecap="round" stroke-linejoin="round">
  <path d="M23 3a10.9 10.9 0 0 1-3.1.9A4.5 4.5 0 0 0 22.4 2a9 9 0 0 1-2.8 1.1A4.5 4.5 0 0 0 16.5 0c-2.5 0-4.5 2-4.5 4.5 0 .4 0 .8.1 1.2A12.8 12.8 0 0 1 1.6 1.1 4.5 4.5 0 0 0 3 6.9a4.5 4.5 0 0 1-2-.6v.1c0 2.2 1.6 4 3.7 4.4a4.5 4.5 0 0 1-2 .1c.6 1.8 2.4 3 4.5 3a9 9 0 0 1-5.6 1.9A12.7 12.7 0 0 0 12 21c7.2 0 11.1-6 11.1-11.2 0-.2 0-.4 0-.6A7.9 7.9 0 0 0 24 4.5a7.8 7.8 0 0 1-2.3.6A4.5 4.5 0 0 0 23 3z"/>
</svg>